<svg xmlns="http://www.w3.org/2000/svg" width="15.134" height="11.006" viewBox="0 0 15.134 11.006"><defs><style>.a{fill:#b4bbc9;}</style></defs><path class="a" d="M14.3,4H2.83A2.064,2.064,0,0,0,1,6.064v6.879a2.064,2.064,0,0,0,2.064,2.064H14.07a2.064,2.064,0,0,0,2.064-2.064V6.064A2.064,2.064,0,0,0,14.3,4Zm-.316,1.376L9.255,10.109a.688.688,0,0,1-.97,0L3.552,5.376Zm.77,7.567a.688.688,0,0,1-.688.688H3.064a.688.688,0,0,1-.688-.688v-6.6l4.733,4.733a2.064,2.064,0,0,0,2.917,0l4.733-4.733Z" transform="translate(-1 -4)"/></svg>