<svg xmlns="http://www.w3.org/2000/svg" width="15.333" height="9.631" viewBox="0 0 15.333 9.631"><defs><style>.a{fill:#b4bbc9;}</style></defs><path class="a" d="M15.978,9.458h0V9.416l-.1-.144c-.089-.124-.213-.3-.371-.5a11.3,11.3,0,0,0-1.424-1.513A8.406,8.406,0,0,0,8.514,5a8.406,8.406,0,0,0-5.5,2.236A11.3,11.3,0,0,0,1.587,8.749c-.158.206-.282.378-.371.5l-.1.144v.041h0L.83,9.815l.22.371h0v.041l.1.144c.089.124.213.3.371.5a11.3,11.3,0,0,0,1.493,1.52,8.406,8.406,0,0,0,5.5,2.236,8.406,8.406,0,0,0,5.538-2.236,11.3,11.3,0,0,0,1.424-1.513c.158-.206.282-.378.371-.5l.1-.144v-.041h0l.22-.358Zm-1.589.578a9.878,9.878,0,0,1-1.245,1.328,7.017,7.017,0,0,1-4.63,1.892,7.017,7.017,0,0,1-4.63-1.892,10.477,10.477,0,0,1-1.252-1.328l-.165-.22.165-.22A10.477,10.477,0,0,1,3.884,8.268a7.017,7.017,0,0,1,4.63-1.892,7.017,7.017,0,0,1,4.63,1.892A9.878,9.878,0,0,1,14.388,9.6c.069.083.124.151.172.22S14.457,9.953,14.388,10.035Z" transform="translate(-0.83 -5)"/><circle class="a" cx="2.064" cy="2.064" r="2.064" transform="translate(5.62 2.752)"/></svg>