<svg xmlns="http://www.w3.org/2000/svg" width="15.134" height="15.134" viewBox="0 0 15.134 15.134"><defs><style>.a{fill:#b4bbc9;fill-rule:evenodd;}</style></defs><path class="a" d="M3.064,16.134H14.07a2.064,2.064,0,0,0,2.064-2.064V7.191A2.064,2.064,0,0,0,14.07,5.127H12.694V3.064A2.064,2.064,0,0,0,10.631,1H6.5A2.064,2.064,0,0,0,4.439,3.064V5.127H3.064A2.064,2.064,0,0,0,1,7.191V14.07A2.064,2.064,0,0,0,3.064,16.134ZM5.815,3.064A.688.688,0,0,1,6.5,2.376h4.127a.688.688,0,0,1,.688.688V5.127h-5.5ZM2.376,7.191A.688.688,0,0,1,3.064,6.5H14.07a.688.688,0,0,1,.688.688V14.07a.688.688,0,0,1-.688.688H3.064a.688.688,0,0,1-.688-.688Z" transform="translate(-1 -1)"/><path class="a" d="M11.021,10.47a2.064,2.064,0,0,0-.647,4.01v1.493a.688.688,0,0,0,1.376,0V14.6h0V14.46a2.064,2.064,0,0,0-.729-3.983Zm0,1.376a.688.688,0,1,1-.688.688A.688.688,0,0,1,11.021,11.846Z" transform="translate(-3.495 -3.956)"/></svg>