<svg xmlns="http://www.w3.org/2000/svg" width="12.819" height="12.839" viewBox="0 0 12.819 12.839"><defs><style>.a{fill:#b4bbc9;}</style></defs><g transform="translate(0)"><path class="a" d="M1.258,11.982a2.642,2.642,0,0,0,3.715.179l.4-.4A2.607,2.607,0,0,0,5.337,8.2,11.275,11.275,0,0,1,6.61,6.63,12.059,12.059,0,0,1,8.164,5.344a2.607,2.607,0,0,0,3.577.048l.4-.4a2.642,2.642,0,0,0-.179-3.715L11.274.591a2.064,2.064,0,0,0-2.2-.447,17.081,17.081,0,0,0-5.379,3.57,17.081,17.081,0,0,0-3.55,5.4,2.064,2.064,0,0,0,.447,2.2Zm.158-2.346c.1-.248.255-.6.461-1.018.069-.138.151-.282.234-.44A15.223,15.223,0,0,1,4.663,4.684,14.715,14.715,0,0,1,6.507,3.15c.385-.275.77-.516,1.128-.729s.688-.371.963-.523c.42-.206.77-.358,1.018-.461a.64.64,0,0,1,.688.144l.688.688a1.266,1.266,0,0,1,.172,1.768l-.4.4A1.266,1.266,0,0,1,9,4.257l-.654-.688a10.751,10.751,0,0,0-1.032.688A12.238,12.238,0,0,0,5.64,5.633,14.446,14.446,0,0,0,3.576,8.385l.633.633a1.266,1.266,0,0,1,.179,1.768l-.4.4a1.266,1.266,0,0,1-1.768-.172l-.688-.688a.64.64,0,0,1-.117-.688Z"/></g></svg>