<svg xmlns="http://www.w3.org/2000/svg" width="13.758" height="15.136" viewBox="0 0 13.758 15.136"><defs><style>.a{fill:#b4bbc9;fill-rule:evenodd;}</style></defs><g transform="translate(0 0)"><path class="a" d="M11.424,8.373a4.127,4.127,0,1,0-5.09,0A6.879,6.879,0,0,0,2,14.757v.688a.688.688,0,0,0,1.376,0v-.688a5.5,5.5,0,0,1,11.006,0v.688a.688.688,0,0,0,1.376,0v-.688a6.879,6.879,0,0,0-4.334-6.384Zm-5.3-3.247A2.752,2.752,0,1,1,8.879,7.878,2.752,2.752,0,0,1,6.127,5.126Z" transform="translate(-2 -0.997)"/></g></svg>